<?xml version="1.0" encoding="utf-8"?>
<!-- Generator: Adobe Illustrator 15.1.0, SVG Export Plug-In . SVG Version: 6.00 Build 0)  -->
<!DOCTYPE svg PUBLIC "-//W3C//DTD SVG 1.1//EN" "http://www.w3.org/Graphics/SVG/1.1/DTD/svg11.dtd">
<svg version="1.1" id="Layer_1" xmlns="http://www.w3.org/2000/svg" xmlns:xlink="http://www.w3.org/1999/xlink" x="0px" y="0px"
	 width="256px" height="256px" viewBox="0 0 256 256" enable-background="new 0 0 256 256" xml:space="preserve">
<g>
	<path fill="#191717" d="M128,52.268c-51.371,0-93.029,41.648-93.029,93.029c0,41.104,26.655,75.975,63.62,88.273
		c4.648,0.861,6.355-2.019,6.355-4.475c0-2.218-0.086-9.548-0.126-17.32C78.939,217.402,73.479,200.8,73.479,200.8
		c-4.232-10.752-10.33-13.61-10.33-13.61c-8.441-5.774,0.637-5.655,0.637-5.655c9.341,0.655,14.261,9.588,14.261,9.588
		c8.297,14.221,21.764,10.108,27.072,7.731c0.835-6.013,3.244-10.117,5.906-12.438c-20.664-2.353-42.386-10.33-42.386-45.976
		c0-10.155,3.635-18.457,9.586-24.972c-0.966-2.344-4.15-11.805,0.901-24.62c0,0,7.813-2.499,25.589,9.537
		c7.421-2.062,15.38-3.095,23.285-3.131c7.904,0.036,15.869,1.07,23.305,3.131c17.756-12.036,25.557-9.537,25.557-9.537
		c5.064,12.814,1.881,22.276,0.914,24.62c5.967,6.515,9.574,14.814,9.574,24.972c0,35.73-21.764,43.599-42.479,45.9
		c3.336,2.887,6.309,8.549,6.309,17.229c0,12.447-0.105,22.467-0.105,25.529c0,2.479,1.676,5.377,6.391,4.463
		c36.943-12.313,63.566-47.174,63.566-88.263C221.029,93.917,179.377,52.268,128,52.268z"/>
	<path fill="#191717" d="M70.206,185.837c-0.205,0.463-0.933,0.603-1.595,0.285c-0.676-0.306-1.053-0.937-0.835-1.397
		c0.2-0.476,0.929-0.606,1.603-0.291C70.054,184.736,70.439,185.374,70.206,185.837L70.206,185.837z"/>
	<path fill="#191717" d="M73.975,190.04c-0.443,0.41-1.312,0.221-1.9-0.431c-0.609-0.647-0.722-1.519-0.271-1.935
		c0.457-0.409,1.298-0.219,1.907,0.431C74.319,188.764,74.438,189.624,73.975,190.04L73.975,190.04z"/>
	<path fill="#191717" d="M77.643,195.396c-0.57,0.396-1.503,0.024-2.079-0.804c-0.57-0.825-0.57-1.819,0.014-2.217
		c0.576-0.396,1.495-0.039,2.079,0.781C78.225,193.999,78.225,194.993,77.643,195.396L77.643,195.396z"/>
	<path fill="#191717" d="M82.667,200.575c-0.51,0.563-1.596,0.409-2.391-0.357c-0.813-0.75-1.039-1.813-0.529-2.377
		c0.518-0.563,1.609-0.403,2.41,0.354C82.965,198.945,83.21,200.02,82.667,200.575L82.667,200.575z"/>
	<path fill="#191717" d="M89.6,203.579c-0.226,0.729-1.271,1.062-2.324,0.75c-1.054-0.318-1.741-1.172-1.528-1.908
		c0.219-0.733,1.27-1.078,2.33-0.746C89.129,201.991,89.817,202.839,89.6,203.579L89.6,203.579z"/>
	<path fill="#191717" d="M97.214,204.136c0.025,0.769-0.868,1.404-1.975,1.419c-1.111,0.024-2.012-0.597-2.024-1.353
		c0-0.772,0.874-1.402,1.985-1.423C96.307,202.759,97.214,203.376,97.214,204.136L97.214,204.136z"/>
	<path fill="#191717" d="M104.298,202.934c0.133,0.746-0.637,1.517-1.734,1.721c-1.08,0.197-2.079-0.266-2.218-1.008
		c-0.134-0.767,0.648-1.535,1.728-1.733C103.173,201.721,104.158,202.171,104.298,202.934L104.298,202.934z"/>
</g>
</svg>
